<svg height="512pt" viewBox="0 -103 512 512" width="512pt" xmlns="http://www.w3.org/2000/svg"><path d="m210.6875 90.054688h90.628906v95.058593h-90.628906zm0 0"/><path d="m90.054688 90.054688h90.628906v95.058593h-90.628906zm0 0"/><path d="m331.320312 90.054688h90.628907v95.058593h-90.628907zm0 0"/><path d="m512 0h-512v275.164062h30.820312v30.035157h30.003907v-30.035157h30.046875v30.035157h30.003906v-30.035157h30.046875v30.035157h30.003906v-30.035157h30.046875v30.035157h30.003906v-30.035157h30.046876v30.035157h30.003906v-30.035157h30.046875v30.035157h30.003906v-30.035157h30.046875v30.035157h30.003906v-30.035157h30.046875v30.035157h30.003907v-30.035157h30.820312zm-451.949219 215.113281v-155.0625h391.898438v155.0625zm0 0"/></svg>